<svg width="1316" height="276" viewBox="0 0 1316 276" fill="none" xmlns="http://www.w3.org/2000/svg">
<path d="M100.42 275.11C91.87 275.11 84.92 268.16 84.92 259.61V179.45C84.92 170.89 77.98 163.95 69.42 163.95H15.5C6.95 163.95 0 157 0 148.45V84.2C0 75.65 6.95 68.7 15.5 68.7H69.42C77.98 68.7 84.92 61.76 84.92 53.2V15.5C84.92 6.95 91.87 0 100.42 0H148.45C157 0 163.95 6.95 163.95 15.5V63.53C163.95 72.08 157 79.03 148.45 79.03H110.75C102.19 79.03 95.25 85.97 95.25 94.53V138.12C95.25 146.68 102.19 153.62 110.75 153.62H180.58C189.14 153.62 196.08 146.68 196.08 138.12V31.72C196.08 23.17 203.03 16.22 211.58 16.22H328.31C336.86 16.22 343.81 23.17 343.81 31.72V148.45C343.81 156.99 336.86 163.95 328.31 163.95H221.91C213.35 163.95 206.41 170.89 206.41 179.45V259.61C206.41 268.16 199.46 275.11 190.91 275.11H100.42Z" fill="#02F8A2"></path>
<path d="M409.26 94.52V181.79C409.26 188.27 414.51 193.52 420.99 193.52H490.33C493.96 193.52 498.8 189.65 500.98 186.5V202.9C500.98 206.14 498.36 208.76 495.12 208.76H421.64C418.41 208.76 415.79 211.36 415.78 214.59C415.76 219.7 415.73 227.08 415.74 232.19C415.74 235.43 418.37 238.04 421.6 238.04H511.42C524.37 238.04 534.87 227.54 534.87 214.59V91.06C534.87 80.01 525.92 71.06 514.87 71.06H432.72C419.77 71.06 409.27 81.56 409.27 94.51L409.26 94.52ZM490.98 164H453.14C447.62 164 443.14 159.52 443.14 154V110.59C443.14 105.07 447.62 100.59 453.14 100.59H490.98C496.5 100.59 500.98 105.07 500.98 110.59V154C500.98 159.52 496.5 164 490.98 164Z" fill="#F2F5F3"></path>
<path d="M652.51 71.07H580.13C567.18 71.07 556.68 81.57 556.68 94.52V170.07C556.68 183.02 567.18 193.52 580.13 193.52H672.25C675.48 193.52 678.11 190.9 678.11 187.66V169.86C678.11 166.62 675.49 164 672.25 164C656.34 164 612.49 164 596.42 164C593.18 164 590.56 161.38 590.56 158.14V150.99C590.56 147.75 593.18 145.13 596.42 145.13H648.72H657.62C670.57 145.13 681.07 134.63 681.07 121.68V94.53C681.07 81.58 670.57 71.08 657.62 71.08H652.52L652.51 71.07ZM641.57 120.68H596.42C593.18 120.68 590.56 118.06 590.56 114.82V106.46C590.56 103.22 593.18 100.6 596.42 100.6H641.57C644.81 100.6 647.43 103.22 647.43 106.46V114.82C647.43 118.06 644.81 120.68 641.57 120.68Z" fill="#F2F5F3"></path>
<path d="M798.96 71.07H726.33C713.38 71.07 702.89 81.57 702.89 94.51V187.65C702.89 190.89 705.52 193.51 708.75 193.51H730.9C734.14 193.51 736.76 190.88 736.76 187.65V112.31C736.76 105.84 742.01 100.59 748.48 100.59H781.9C788.37 100.59 793.62 105.84 793.62 112.31V187.65C793.62 190.89 796.25 193.51 799.48 193.51H821.63C824.87 193.51 827.49 190.88 827.49 187.65V94.51C827.49 81.56 816.99 71.07 804.05 71.07H798.94H798.96Z" fill="#F2F5F3"></path>
<path d="M945.15 71.07H872.77C859.82 71.07 849.32 81.57 849.32 94.52V170.07C849.32 183.02 859.82 193.52 872.77 193.52H964.89C968.12 193.52 970.75 190.9 970.75 187.66V169.86C970.75 166.62 968.13 164 964.89 164C948.98 164 905.13 164 889.06 164C885.82 164 883.2 161.38 883.2 158.14V150.99C883.2 147.75 885.82 145.13 889.06 145.13H941.36H950.26C963.21 145.13 973.71 134.63 973.71 121.68V94.53C973.71 81.58 963.21 71.08 950.26 71.08H945.16L945.15 71.07ZM934.2 120.68H889.05C885.81 120.68 883.19 118.06 883.19 114.82V106.46C883.19 103.22 885.81 100.6 889.05 100.6H934.2C937.44 100.6 940.06 103.22 940.06 106.46V114.82C940.06 118.06 937.44 120.68 934.2 120.68Z" fill="#F2F5F3"></path>
<path d="M1111.66 92.46C1111.76 92.36 1111.73 83.25 1111.7 76.98C1111.68 73.76 1109.06 71.16 1105.84 71.16H1001.37C998.13 71.16 995.5 73.79 995.5 77.03V94.83C995.5 98.07 998.12 100.69 1001.36 100.69H1065.68L1000.82 162.64C998.88 164.58 995.5 168.21 995.5 171.35V187.76C995.5 191 998.12 193.62 1001.36 193.62H1105.8C1109.04 193.62 1111.67 190.99 1111.67 187.75V169.96C1111.67 166.72 1109.04 164.09 1105.8 164.09H1041.73L1105.86 102.38C1109.01 99.23 1111.67 95.6 1111.67 92.46H1111.66Z" fill="#F2F5F3"></path>
<path d="M1161.55 71.11H1139.39C1136.15 71.11 1133.53 73.74 1133.53 76.97V187.7C1133.53 190.92 1136.17 193.56 1139.39 193.56H1161.55C1164.77 193.56 1167.41 190.92 1167.41 187.7V76.97C1167.41 73.75 1164.77 71.11 1161.55 71.11Z" fill="#F2F5F3"></path>
<path d="M1139.34 25.67H1161.5C1164.73 25.67 1167.36 28.3 1167.36 31.53V49.82C1167.36 53.05 1164.73 55.68 1161.5 55.68H1139.34C1136.11 55.68 1133.48 53.05 1133.48 49.82V31.53C1133.48 28.3 1136.11 25.67 1139.34 25.67Z" fill="#02F8A2"></path>
<path d="M1189.18 94.61V170.17C1189.18 183.12 1199.68 193.62 1212.63 193.62H1291.82C1304.77 193.62 1315.27 183.12 1315.27 170.17V94.61C1315.27 81.66 1304.77 71.16 1291.82 71.16H1212.63C1199.68 71.16 1189.18 81.66 1189.18 94.61ZM1269.65 164.09H1234.78C1228.3 164.09 1223.05 158.84 1223.05 152.36V112.41C1223.05 105.93 1228.3 100.68 1234.78 100.68H1269.65C1276.13 100.68 1281.38 105.93 1281.38 112.41V152.36C1281.38 158.84 1276.13 164.09 1269.65 164.09Z" fill="#F2F5F3"></path>
</svg>