<svg width="207" height="276" viewBox="0 0 207 276" fill="none" xmlns="http://www.w3.org/2000/svg"><path d="M100.42 275.11C91.87 275.11 84.92 268.16 84.92 259.61V179.45C84.92 170.89 77.98 163.95 69.42 163.95H15.5C6.95 163.95 0 157 0 148.45V84.2C0 75.65 6.95 68.7 15.5 68.7H69.42C77.98 68.7 84.92 61.76 84.92 53.2V15.5C84.92 6.95 91.87 0 100.42 0H148.45C157 0 163.95 6.95 163.95 15.5V63.53C163.95 72.08 157 79.03 148.45 79.03H110.75C102.19 79.03 95.25 85.97 95.25 94.53V138.12C95.25 146.68 102.19 153.62 110.75 153.62H180.58C189.14 153.62 196.08 146.68 196.08 138.12V31.72C196.08 23.17 203.03 16.22 211.58 16.22H328.31C336.86 16.22 343.81 23.17 343.81 31.72V148.45C343.81 156.99 336.86 163.95 328.31 163.95H221.91C213.35 163.95 206.41 170.89 206.41 179.45V259.61C206.41 268.16 199.46 275.11 190.91 275.11H100.42Z" fill="#02F8A2"></path></svg>